<svg width="22" height="15" viewBox="0 0 22 15" fill="none" xmlns="http://www.w3.org/2000/svg">
<path d="M21.8249 7.09278L14.6902 0.168772C14.4584 -0.0562579 14.0814 -0.0562579 13.8496 0.168772C13.6177 0.393802 13.6177 0.759621 13.8496 0.984651L19.9687 6.92314L0.594554 6.92314C0.26636 6.92314 -3.41751e-07 7.18164 -3.27829e-07 7.50014C-3.13907e-07 7.81865 0.26636 8.07714 0.594554 8.07714L19.9687 8.07714L13.8496 14.0156C13.6177 14.2407 13.6177 14.6065 13.8496 14.8315C13.9661 14.9446 14.1183 15 14.2705 15C14.4227 15 14.5749 14.9435 14.6914 14.8315L21.8261 7.90751C22.058 7.68248 22.058 7.31666 21.8261 7.09163L21.8249 7.09278Z" fill="white"/>
</svg>
