<svg width="22" height="15" viewBox="0 0 22 15" fill="none" xmlns="http://www.w3.org/2000/svg">
<path d="M0.175097 7.09278L7.30975 0.168772C7.54163 -0.0562579 7.91857 -0.0562579 8.15045 0.168772C8.38233 0.393802 8.38233 0.759621 8.15045 0.984651L2.0313 6.92314L21.4054 6.92314C21.7336 6.92314 22 7.18164 22 7.50014C22 7.81865 21.7336 8.07714 21.4054 8.07714L2.0313 8.07714L8.15045 14.0156C8.38233 14.2407 8.38233 14.6065 8.15045 14.8315C8.03392 14.9446 7.88171 15 7.7295 15C7.5773 15 7.42509 14.9435 7.30856 14.8315L0.173909 7.90751C-0.0579678 7.68248 -0.0579678 7.31666 0.173909 7.09163L0.175097 7.09278Z" fill="white"/>
</svg>
