<svg width="44" height="44" viewBox="0 0 44 44" fill="none" xmlns="http://www.w3.org/2000/svg">
<g clip-path="url(#clip0_151_982)">
<path d="M22 44C34.1503 44 44 34.1503 44 22C44 9.84974 34.1503 0 22 0C9.84974 0 0 9.84974 0 22C0 34.1503 9.84974 44 22 44Z" fill="#4D76A1"/>
<path fill-rule="evenodd" clip-rule="evenodd" d="M21.1688 31.649H22.8955C22.8955 31.649 23.4171 31.5918 23.6834 31.3047C23.9285 31.0412 23.9206 30.5463 23.9206 30.5463C23.9206 30.5463 23.8869 28.2293 24.9623 27.8881C26.0223 27.552 27.3835 30.1274 28.8263 31.1176C29.9173 31.8671 30.7464 31.7028 30.7464 31.7028L34.6042 31.649C34.6042 31.649 36.6223 31.5247 35.6654 29.938C35.5869 29.8082 35.1081 28.7642 32.797 26.6191C30.3781 24.3739 30.7021 24.737 33.6159 20.8534C35.3905 18.4882 36.0999 17.0442 35.8783 16.4257C35.667 15.8367 34.3618 15.9924 34.3618 15.9924L30.0181 16.0195C30.0181 16.0195 29.6961 15.9755 29.4573 16.1183C29.224 16.2583 29.0738 16.5846 29.0738 16.5846C29.0738 16.5846 28.3863 18.4148 27.4694 19.9714C25.5352 23.2558 24.7619 23.4291 24.4458 23.2252C23.7104 22.7499 23.894 21.3157 23.894 20.2969C23.894 17.114 24.3767 15.7869 22.9539 15.4434C22.4818 15.3292 22.1343 15.2539 20.9268 15.2418C19.377 15.2257 18.0651 15.2465 17.3224 15.6104C16.8282 15.8524 16.447 16.3916 16.6792 16.4226C16.9663 16.461 17.6165 16.5979 17.9612 17.0673C18.4063 17.6728 18.3906 19.0329 18.3906 19.0329C18.3906 19.0329 18.6463 22.7797 17.7934 23.2452C17.2079 23.5644 16.4047 22.9126 14.6803 19.9329C13.7968 18.4066 13.1297 16.7195 13.1297 16.7195C13.1297 16.7195 13.001 16.4042 12.7716 16.2355C12.4932 16.0312 12.1041 15.9661 12.1041 15.9661L7.97655 15.9932C7.97655 15.9932 7.35692 16.0104 7.12946 16.2799C6.9271 16.5195 7.11338 17.0152 7.11338 17.0152C7.11338 17.0152 10.3449 24.5754 14.0038 28.3854C17.3588 31.8785 21.1688 31.649 21.1688 31.649Z" fill="white"/>
</g>
<defs>
<clipPath id="clip0_151_982">
<rect width="44" height="44" fill="white"/>
</clipPath>
</defs>
</svg>
