<svg width="44" height="44" viewBox="0 0 44 44" fill="none" xmlns="http://www.w3.org/2000/svg">
<g clip-path="url(#clip0_151_987)">
<path d="M44 22C44 34.155 34.155 44 22 44C9.845 44 0 34.155 0 22C0 9.845 9.845 0 22 0C34.155 0 44 9.845 44 22Z" fill="url(#paint0_linear_151_987)"/>
<path d="M17.9665 32.0833C17.2515 32.0833 17.3799 31.8083 17.1232 31.13L15.0332 24.2366L28.0132 16.1333L29.5349 16.5366L28.2699 19.9833L17.9665 32.0833Z" fill="#C8DAEA"/>
<path d="M17.9668 32.0833C18.5168 32.0833 18.7551 31.8266 19.0668 31.5333C19.5435 31.075 25.6668 25.1166 25.6668 25.1166L21.9085 24.2L18.4251 26.4L17.9668 31.9V32.0833Z" fill="#A9C9DD"/>
<path d="M18.3332 26.4731L27.2066 33.0181C28.2149 33.5681 28.9482 33.2931 29.2049 32.0831L32.8166 15.0698C33.1832 13.5848 32.2482 12.9248 31.2766 13.3648L10.0832 21.5414C8.63489 22.1281 8.65322 22.9348 9.82655 23.2831L15.2716 24.9881L27.8666 17.0498C28.4532 16.6831 29.0032 16.8848 28.5632 17.2881L18.3332 26.4731Z" fill="url(#paint1_linear_151_987)"/>
</g>
<defs>
<linearGradient id="paint0_linear_151_987" x1="28.4478" y1="6.95383" x2="17.4478" y2="32.6201" gradientUnits="userSpaceOnUse">
<stop stop-color="#37AEE2"/>
<stop offset="1" stop-color="#1E96C8"/>
</linearGradient>
<linearGradient id="paint1_linear_151_987" x1="23.6482" y1="22.6882" x2="28.2316" y2="30.0215" gradientUnits="userSpaceOnUse">
<stop stop-color="#EFF7FC"/>
<stop offset="1" stop-color="white"/>
</linearGradient>
<clipPath id="clip0_151_987">
<rect width="44" height="44" fill="white"/>
</clipPath>
</defs>
</svg>
