<svg width="44" height="44" viewBox="0 0 44 44" fill="none" xmlns="http://www.w3.org/2000/svg">
<g clip-path="url(#clip0_151_992)">
<rect width="44" height="44" rx="22" fill="url(#paint0_linear_151_992)"/>
<circle cx="22" cy="22" r="22" fill="url(#paint1_linear_151_992)"/>
<path d="M21.9985 22.4923C26.3736 22.4923 29.9159 18.9371 29.9159 14.5749C29.9159 10.1998 26.3607 6.65747 21.9985 6.65747C17.6363 6.65747 14.0811 10.2127 14.0811 14.5749C14.0811 18.9371 17.6354 22.4923 21.9985 22.4923ZM21.9985 11.2964C23.8066 11.2964 25.2761 12.7668 25.2761 14.574C25.2761 16.3813 23.8057 17.8517 21.9985 17.8517C20.1912 17.8517 18.7208 16.3813 18.7208 14.574C18.7208 12.7668 20.1904 11.2964 21.9985 11.2964Z" fill="white"/>
<path d="M25.2038 28.9522C26.8186 28.5904 28.3732 27.9519 29.8075 27.0479C30.892 26.3612 31.2177 24.9269 30.5302 23.8424C29.8436 22.7579 28.4213 22.4322 27.3247 23.1076C24.0832 25.1443 19.9006 25.1443 16.659 23.1076C15.5745 22.421 14.1402 22.7458 13.4656 23.8424C12.7789 24.9269 13.1038 26.3612 14.1883 27.0479C15.6226 27.9519 17.1772 28.5904 18.792 28.9522L14.3688 33.3754C13.4647 34.2795 13.4647 35.7499 14.3688 36.6531C14.8268 37.1111 15.4172 37.3277 16.0076 37.3277C16.598 37.3277 17.2004 37.0991 17.6464 36.6531L21.9975 32.3021L26.3485 36.6531C27.2525 37.5572 28.7229 37.5572 29.6261 36.6531C30.5302 35.749 30.5302 34.2786 29.6261 33.3754L25.2038 28.9522Z" fill="white"/>
</g>
<defs>
<linearGradient id="paint0_linear_151_992" x1="21.9994" y1="43.9978" x2="21.9994" y2="0.00112239" gradientUnits="userSpaceOnUse">
<stop stop-color="#F05822"/>
<stop offset="1" stop-color="#F47E20"/>
</linearGradient>
<linearGradient id="paint1_linear_151_992" x1="21.9994" y1="43.9978" x2="21.9994" y2="0.00112239" gradientUnits="userSpaceOnUse">
<stop stop-color="#F05822"/>
<stop offset="1" stop-color="#F47E20"/>
</linearGradient>
<clipPath id="clip0_151_992">
<rect width="44" height="44" rx="22" fill="white"/>
</clipPath>
</defs>
</svg>
