<svg width="65" height="44" viewBox="0 0 65 44" fill="none" xmlns="http://www.w3.org/2000/svg">
<path d="M42.8187 44H0V0H42.8187V15.0544H40.8337V2.03975H1.98291V41.9603H40.8337V28.8473H42.8187V44Z" fill="white"/>
<path d="M8.74609 17.4824H10.7352V21.378L13.5816 17.4824H15.9682L12.6994 21.6089L16.2283 26.4239H13.7065L10.7352 22.1691V26.4239H8.74609V17.4824Z" fill="white"/>
<path d="M21.4157 24.5804C23.0199 24.5804 23.8522 23.4151 23.8522 21.9526C23.8522 20.3661 22.7785 19.3248 21.4157 19.3248C20.0175 19.3248 18.9813 20.3661 18.9813 21.9526C18.9813 23.4386 20.0653 24.5804 21.4157 24.5804ZM21.4157 17.4668C23.9854 17.4668 25.9038 19.188 25.9038 21.9526C25.9038 24.5804 23.9854 26.4384 21.4157 26.4384C18.8481 26.4384 16.9297 24.7151 16.9297 21.9526C16.9297 19.436 18.7274 17.4668 21.4157 17.4668Z" fill="white"/>
<path d="M34.2688 26.4219L30.1427 21.0574V26.4219H28.2764V17.4824H29.8681L33.9962 22.8705L33.992 17.4824H35.8563L35.8605 26.4219H34.2688Z" fill="white"/>
<path d="M38.2539 17.4824H45.4635V19.3981H42.8523V26.4239H40.8631V19.3981H38.2539V17.4824Z" fill="white"/>
<path d="M55.1124 22.5771C55.1124 25.3095 53.4228 26.4213 51.5586 26.4213C49.3218 26.4213 47.7676 25.1064 47.7676 22.4873V17.4863H49.7567V22.0533C49.7567 23.4451 50.1666 24.5056 51.5586 24.5056C52.7633 24.5056 53.1232 23.5991 53.1232 22.1687V17.4863H55.1124V22.5771Z" fill="white"/>
<path d="M59.4911 19.4277V21.4076H60.211C60.9705 21.4076 61.5656 21.1253 61.5656 20.3727C61.5656 19.8746 61.3201 19.4256 60.3629 19.4256C60.0633 19.4256 59.901 19.4149 59.4911 19.4277ZM57.502 26.4213V17.4863C57.9868 17.4863 60.211 17.4863 60.4607 17.4863C62.8348 17.4863 63.6796 18.6986 63.6796 20.3471C63.6796 22.0062 62.685 22.684 62.2127 22.9277L64.7283 26.4213H62.3167L60.2235 23.3233H59.4911V26.4213H57.502Z" fill="white"/>
</svg>
