<svg width="1011" height="644" viewBox="0 0 1011 644" fill="none" xmlns="http://www.w3.org/2000/svg">
<g opacity="0.3" clip-path="url(#clip0_151_926)">
<path style="mix-blend-mode:overlay" d="M210.893 240.334C94.2999 123.74 94.2999 -65.2951 210.894 -181.889C327.487 -298.482 516.523 -298.482 633.116 -181.889C749.71 -65.2951 749.71 123.74 633.116 240.334C516.523 356.928 327.487 356.928 210.893 240.334Z" stroke="url(#paint0_linear_151_926)" stroke-miterlimit="10"/>
<path style="mix-blend-mode:overlay" d="M227.903 223.147C120.782 116.026 120.782 -57.6519 227.903 -164.773C335.024 -271.894 508.702 -271.894 615.823 -164.773C722.944 -57.6519 722.944 116.026 615.823 223.147C508.702 330.268 335.024 330.268 227.903 223.147Z" stroke="#015291" stroke-miterlimit="10"/>
<path style="mix-blend-mode:overlay" d="M244.913 205.96C147.264 108.312 147.264 -50.0088 244.913 -147.658C342.562 -245.307 500.882 -245.307 598.531 -147.658C696.18 -50.0088 696.18 108.311 598.531 205.96C500.882 303.609 342.562 303.609 244.913 205.96Z" stroke="#360687" stroke-miterlimit="10"/>
<path style="mix-blend-mode:overlay" d="M261.921 188.774C173.745 100.597 173.745 -42.3656 261.921 -130.542C350.098 -218.719 493.061 -218.719 581.237 -130.542C669.414 -42.3656 669.414 100.597 581.237 188.774C493.061 276.95 350.098 276.95 261.921 188.774Z" stroke="url(#paint1_linear_151_926)" stroke-miterlimit="10"/>
<path style="mix-blend-mode:overlay" d="M382.883 226.893C273.633 205.6 202.331 99.7753 223.623 -9.47394C244.916 -118.723 350.741 -190.026 459.99 -168.733C569.24 -147.44 640.543 -41.6152 619.25 67.634C597.957 176.883 492.132 248.186 382.883 226.893Z" stroke="url(#paint2_linear_151_926)" stroke-miterlimit="10"/>
<path style="mix-blend-mode:overlay" d="M412.07 206.084C314.293 200.989 239.16 117.595 244.256 19.8185C249.351 -77.9578 332.745 -153.091 430.522 -147.995C528.298 -142.9 603.431 -59.5059 598.336 38.2705C593.24 136.047 509.846 211.18 412.07 206.084Z" stroke="#360687" stroke-miterlimit="10"/>
<path style="mix-blend-mode:overlay" d="M268.267 35.5122C264.676 -48.9247 330.214 -120.286 414.651 -123.878C499.088 -127.469 570.449 -61.9314 574.041 22.5056C577.632 106.943 512.094 178.304 427.657 181.896C343.22 185.487 271.859 119.949 268.267 35.5122Z" stroke="#015291" stroke-miterlimit="10"/>
<path style="mix-blend-mode:overlay" d="M292.969 42.6355C285.423 -28.0806 336.633 -91.5242 407.349 -99.0697C478.065 -106.615 541.509 -55.4052 549.054 15.3109C556.6 86.027 505.39 149.471 434.674 157.016C363.958 164.562 300.514 113.352 292.969 42.6355Z" stroke="#360687" stroke-miterlimit="10"/>
<path style="mix-blend-mode:overlay" d="M317.543 44.6477C308.867 -12.4182 348.094 -65.713 405.16 -74.3894C462.226 -83.0659 515.521 -43.8385 524.197 13.2274C532.874 70.2933 493.646 123.588 436.58 132.264C379.514 140.941 326.22 101.714 317.543 44.6477Z" stroke="url(#paint3_linear_151_926)" stroke-miterlimit="10"/>
<path style="mix-blend-mode:overlay" d="M605.667 787.802C489.073 671.209 489.073 482.173 605.667 365.58C722.26 248.986 911.295 248.986 1027.89 365.58C1144.48 482.173 1144.48 671.209 1027.89 787.802C911.295 904.396 722.26 904.396 605.667 787.802Z" stroke="#360687" stroke-miterlimit="10"/>
<path style="mix-blend-mode:overlay" d="M546.779 625.421C519.944 476.325 619.057 333.704 768.154 306.87C917.251 280.035 1059.87 379.148 1086.71 528.245C1113.54 677.341 1014.43 819.962 865.331 846.796C716.234 873.631 573.614 774.518 546.779 625.421Z" stroke="#360687" stroke-miterlimit="10"/>
<path style="mix-blend-mode:overlay" d="M571.872 627.759C543.825 492.541 630.704 360.188 765.923 332.141C901.141 304.094 1033.49 390.973 1061.54 526.191C1089.59 661.409 1002.71 793.762 867.491 821.81C732.273 849.857 599.92 762.978 571.872 627.759Z" stroke="url(#paint4_linear_151_926)" stroke-miterlimit="10"/>
<path style="mix-blend-mode:overlay" d="M597.901 632.984C567.047 512.161 639.981 389.202 760.804 358.347C881.627 327.493 1004.59 400.427 1035.44 521.25C1066.3 642.073 993.361 765.032 872.538 795.887C751.715 826.741 628.755 753.807 597.901 632.984Z" stroke="url(#paint5_linear_151_926)" stroke-miterlimit="10"/>
<path style="mix-blend-mode:overlay" d="M626.894 645.19C589.377 540.399 643.913 425.035 748.705 387.517C853.496 350 968.86 404.536 1006.38 509.328C1043.89 614.119 989.358 729.483 884.567 767C779.776 804.518 664.412 749.981 626.894 645.19Z" stroke="url(#paint6_linear_151_926)" stroke-miterlimit="10"/>
<path style="mix-blend-mode:overlay" d="M691.243 702.757C622.011 633.524 622.011 521.277 691.243 452.045C760.475 382.813 872.722 382.813 941.955 452.045C1011.19 521.277 1011.19 633.524 941.955 702.757C872.722 771.989 760.475 771.989 691.243 702.757Z" stroke="url(#paint7_linear_151_926)" stroke-miterlimit="10"/>
<path style="mix-blend-mode:overlay" d="M747.827 714.261C672.319 676.299 641.883 584.313 679.845 508.806C717.808 433.299 809.793 402.862 885.3 440.824C960.808 478.787 991.244 570.772 953.282 646.279C915.32 721.787 823.334 752.223 747.827 714.261Z" stroke="url(#paint8_linear_151_926)" stroke-miterlimit="10"/>
<path style="mix-blend-mode:overlay" d="M791.812 704.06C722.017 690.409 676.503 622.763 690.153 552.968C703.804 483.173 771.45 437.659 841.245 451.309C911.04 464.96 956.554 532.606 942.904 602.401C929.253 672.196 861.607 717.71 791.812 704.06Z" stroke="#360687" stroke-miterlimit="10"/>
<path style="mix-blend-mode:overlay" d="M806.793 681.89C749.32 676.533 707.072 625.6 712.428 568.127C717.785 510.655 768.718 468.407 826.191 473.763C883.663 479.12 925.912 530.053 920.555 587.525C915.198 644.998 864.265 687.246 806.793 681.89Z" stroke="url(#paint9_linear_151_926)" stroke-miterlimit="10"/>
</g>
<defs>
<linearGradient id="paint0_linear_151_926" x1="722.534" y1="29.2227" x2="121.476" y2="29.2227" gradientUnits="userSpaceOnUse">
<stop offset="0.09838" stop-color="#360687"/>
<stop offset="0.17413" stop-color="#7655AD"/>
<stop offset="0.32758" stop-color="white"/>
<stop offset="0.42861" stop-color="#BCA4F6"/>
<stop offset="0.52069" stop-color="#8458EE"/>
<stop offset="0.58587" stop-color="#6128EA"/>
<stop offset="0.61827" stop-color="#5416E8"/>
<stop offset="0.69312" stop-color="#541FE6"/>
<stop offset="0.81567" stop-color="#5438E2"/>
<stop offset="0.96991" stop-color="#545FDB"/>
<stop offset="1" stop-color="#5468DA"/>
</linearGradient>
<linearGradient id="paint1_linear_151_926" x1="649.343" y1="29.1157" x2="193.816" y2="29.1157" gradientUnits="userSpaceOnUse">
<stop offset="0.09838" stop-color="#360687"/>
<stop offset="0.17413" stop-color="#7655AD"/>
<stop offset="0.32758" stop-color="white"/>
<stop offset="0.42861" stop-color="#BCA4F6"/>
<stop offset="0.52069" stop-color="#8458EE"/>
<stop offset="0.58587" stop-color="#6128EA"/>
<stop offset="0.61827" stop-color="#5416E8"/>
<stop offset="0.69312" stop-color="#541FE6"/>
<stop offset="0.81567" stop-color="#5438E2"/>
<stop offset="0.96991" stop-color="#545FDB"/>
<stop offset="1" stop-color="#5468DA"/>
</linearGradient>
<linearGradient id="paint2_linear_151_926" x1="624.945" y1="29.0801" x2="217.929" y2="29.0801" gradientUnits="userSpaceOnUse">
<stop offset="0.09838" stop-color="#360687"/>
<stop offset="0.17413" stop-color="#7655AD"/>
<stop offset="0.32758" stop-color="white"/>
<stop offset="0.42861" stop-color="#BCA4F6"/>
<stop offset="0.52069" stop-color="#8458EE"/>
<stop offset="0.58587" stop-color="#6128EA"/>
<stop offset="0.61827" stop-color="#5416E8"/>
<stop offset="0.69312" stop-color="#541FE6"/>
<stop offset="0.81567" stop-color="#5438E2"/>
<stop offset="0.96991" stop-color="#545FDB"/>
<stop offset="1" stop-color="#5468DA"/>
</linearGradient>
<linearGradient id="paint3_linear_151_926" x1="527.357" y1="28.9375" x2="314.383" y2="28.9375" gradientUnits="userSpaceOnUse">
<stop offset="0.09838" stop-color="#360687"/>
<stop offset="0.17413" stop-color="#7655AD"/>
<stop offset="0.32758" stop-color="white"/>
<stop offset="0.42861" stop-color="#BCA4F6"/>
<stop offset="0.52069" stop-color="#8458EE"/>
<stop offset="0.58587" stop-color="#6128EA"/>
<stop offset="0.61827" stop-color="#5416E8"/>
<stop offset="0.69312" stop-color="#541FE6"/>
<stop offset="0.81567" stop-color="#5438E2"/>
<stop offset="0.96991" stop-color="#545FDB"/>
<stop offset="1" stop-color="#5468DA"/>
</linearGradient>
<linearGradient id="paint4_linear_151_926" x1="816.707" y1="324.957" x2="816.707" y2="828.993" gradientUnits="userSpaceOnUse">
<stop offset="0.09838" stop-color="#360687"/>
<stop offset="0.17413" stop-color="#7655AD"/>
<stop offset="0.32758" stop-color="white"/>
<stop offset="0.42861" stop-color="#BCA4F6"/>
<stop offset="0.52069" stop-color="#8458EE"/>
<stop offset="0.58587" stop-color="#6128EA"/>
<stop offset="0.61827" stop-color="#5416E8"/>
<stop offset="0.69312" stop-color="#541FE6"/>
<stop offset="0.81567" stop-color="#5438E2"/>
<stop offset="0.96991" stop-color="#545FDB"/>
<stop offset="1" stop-color="#5468DA"/>
</linearGradient>
<linearGradient id="paint5_linear_151_926" x1="816.671" y1="349.354" x2="816.671" y2="804.88" gradientUnits="userSpaceOnUse">
<stop offset="0.09838" stop-color="#360687"/>
<stop offset="0.17413" stop-color="#7655AD"/>
<stop offset="0.32758" stop-color="white"/>
<stop offset="0.42861" stop-color="#BCA4F6"/>
<stop offset="0.52069" stop-color="#8458EE"/>
<stop offset="0.58587" stop-color="#6128EA"/>
<stop offset="0.61827" stop-color="#5416E8"/>
<stop offset="0.69312" stop-color="#541FE6"/>
<stop offset="0.81567" stop-color="#5438E2"/>
<stop offset="0.96991" stop-color="#545FDB"/>
<stop offset="1" stop-color="#5468DA"/>
</linearGradient>
<linearGradient id="paint6_linear_151_926" x1="816.636" y1="373.751" x2="816.636" y2="780.767" gradientUnits="userSpaceOnUse">
<stop offset="0.09838" stop-color="#360687"/>
<stop offset="0.17413" stop-color="#7655AD"/>
<stop offset="0.32758" stop-color="white"/>
<stop offset="0.42861" stop-color="#BCA4F6"/>
<stop offset="0.52069" stop-color="#8458EE"/>
<stop offset="0.58587" stop-color="#6128EA"/>
<stop offset="0.61827" stop-color="#5416E8"/>
<stop offset="0.69312" stop-color="#541FE6"/>
<stop offset="0.81567" stop-color="#5438E2"/>
<stop offset="0.96991" stop-color="#545FDB"/>
<stop offset="1" stop-color="#5468DA"/>
</linearGradient>
<linearGradient id="paint7_linear_151_926" x1="816.599" y1="398.148" x2="816.599" y2="756.653" gradientUnits="userSpaceOnUse">
<stop offset="0.09838" stop-color="#360687"/>
<stop offset="0.17413" stop-color="#7655AD"/>
<stop offset="0.32758" stop-color="white"/>
<stop offset="0.42861" stop-color="#BCA4F6"/>
<stop offset="0.52069" stop-color="#8458EE"/>
<stop offset="0.58587" stop-color="#6128EA"/>
<stop offset="0.61827" stop-color="#5416E8"/>
<stop offset="0.69312" stop-color="#541FE6"/>
<stop offset="0.81567" stop-color="#5438E2"/>
<stop offset="0.96991" stop-color="#545FDB"/>
<stop offset="1" stop-color="#5468DA"/>
</linearGradient>
<linearGradient id="paint8_linear_151_926" x1="816.564" y1="422.545" x2="816.564" y2="732.54" gradientUnits="userSpaceOnUse">
<stop offset="0.09838" stop-color="#360687"/>
<stop offset="0.17413" stop-color="#7655AD"/>
<stop offset="0.32758" stop-color="white"/>
<stop offset="0.42861" stop-color="#BCA4F6"/>
<stop offset="0.52069" stop-color="#8458EE"/>
<stop offset="0.58587" stop-color="#6128EA"/>
<stop offset="0.61827" stop-color="#5416E8"/>
<stop offset="0.69312" stop-color="#541FE6"/>
<stop offset="0.81567" stop-color="#5438E2"/>
<stop offset="0.96991" stop-color="#545FDB"/>
<stop offset="1" stop-color="#5468DA"/>
</linearGradient>
<linearGradient id="paint9_linear_151_926" x1="816.492" y1="471.34" x2="816.492" y2="684.313" gradientUnits="userSpaceOnUse">
<stop offset="0.09838" stop-color="#360687"/>
<stop offset="0.17413" stop-color="#7655AD"/>
<stop offset="0.32758" stop-color="white"/>
<stop offset="0.42861" stop-color="#BCA4F6"/>
<stop offset="0.52069" stop-color="#8458EE"/>
<stop offset="0.58587" stop-color="#6128EA"/>
<stop offset="0.61827" stop-color="#5416E8"/>
<stop offset="0.69312" stop-color="#541FE6"/>
<stop offset="0.81567" stop-color="#5438E2"/>
<stop offset="0.96991" stop-color="#545FDB"/>
<stop offset="1" stop-color="#5468DA"/>
</linearGradient>
<clipPath id="clip0_151_926">
<rect width="1011" height="644" fill="white" transform="matrix(-1 0 0 1 1011 0)"/>
</clipPath>
</defs>
</svg>
