<svg width="738" height="501" viewBox="0 0 738 501" fill="none" xmlns="http://www.w3.org/2000/svg">
<g opacity="0.3" clip-path="url(#clip0_151_1117)">
<path style="mix-blend-mode:overlay" d="M583.637 186.968C668.978 96.2639 668.978 -50.7964 583.637 -141.5C498.297 -232.204 359.932 -232.204 274.592 -141.5C189.251 -50.7964 189.251 96.2639 274.592 186.968C359.932 277.672 498.297 277.672 583.637 186.968Z" stroke="url(#paint0_linear_151_1117)" stroke-miterlimit="10"/>
<path style="mix-blend-mode:overlay" d="M571.187 173.597C649.594 90.2623 649.594 -44.8503 571.187 -128.185C492.779 -211.52 365.656 -211.52 287.249 -128.185C208.842 -44.8503 208.842 90.2623 287.249 173.597C365.656 256.932 492.779 256.932 571.187 173.597Z" stroke="#015291" stroke-miterlimit="10"/>
<path style="mix-blend-mode:overlay" d="M558.737 160.227C630.211 84.2609 630.211 -38.9044 558.737 -114.87C487.263 -190.836 371.38 -190.836 299.906 -114.87C228.432 -38.9044 228.432 84.2609 299.906 160.227C371.38 236.193 487.263 236.193 558.737 160.227Z" stroke="#360687" stroke-miterlimit="10"/>
<path style="mix-blend-mode:overlay" d="M546.287 146.857C610.827 78.2595 610.827 -32.9583 546.287 -101.555C481.746 -170.153 377.104 -170.153 312.564 -101.555C248.023 -32.9583 248.023 78.2595 312.564 146.857C377.104 215.454 481.746 215.454 546.287 146.857Z" stroke="url(#paint1_linear_151_1117)" stroke-miterlimit="10"/>
<path style="mix-blend-mode:overlay" d="M457.75 176.512C537.714 159.947 589.904 77.6203 574.319 -7.37019C558.734 -92.3607 481.275 -147.831 401.311 -131.266C321.346 -114.701 269.156 -32.3745 284.741 52.616C300.326 137.606 377.785 193.076 457.75 176.512Z" stroke="url(#paint2_linear_151_1117)" stroke-miterlimit="10"/>
<path style="mix-blend-mode:overlay" d="M436.386 160.323C507.953 156.359 562.947 91.483 559.217 15.4178C555.487 -60.6474 494.447 -119.097 422.88 -115.133C351.313 -111.169 296.319 -46.2926 300.049 29.7726C303.778 105.838 364.819 164.287 436.386 160.323Z" stroke="#360687" stroke-miterlimit="10"/>
<path style="mix-blend-mode:overlay" d="M541.643 27.6267C544.272 -38.061 496.301 -93.5766 434.498 -96.3708C372.694 -99.1649 320.461 -48.1796 317.832 17.5082C315.203 83.196 363.174 138.712 424.977 141.506C486.781 144.3 539.014 93.3145 541.643 27.6267Z" stroke="#015291" stroke-miterlimit="10"/>
<path style="mix-blend-mode:overlay" d="M523.562 33.1683C529.085 -21.8453 491.602 -71.2013 439.841 -77.0713C388.081 -82.9413 341.643 -43.1026 336.12 11.9111C330.597 66.9247 368.08 116.281 419.841 122.151C471.601 128.021 518.039 88.1819 523.562 33.1683Z" stroke="#360687" stroke-miterlimit="10"/>
<path style="mix-blend-mode:overlay" d="M505.575 34.7337C511.925 -9.66074 483.213 -51.1214 441.444 -57.8713C399.674 -64.6211 360.665 -34.1042 354.314 10.2902C347.964 54.6847 376.676 96.1453 418.445 102.895C460.215 109.645 499.224 79.1281 505.575 34.7337Z" stroke="url(#paint3_linear_151_1117)" stroke-miterlimit="10"/>
<path style="mix-blend-mode:overlay" d="M294.683 612.871C380.023 522.167 380.023 375.107 294.683 284.403C209.342 193.699 70.9781 193.699 -14.3623 284.403C-99.7027 375.107 -99.7027 522.167 -14.3623 612.871C70.9781 703.575 209.342 703.575 294.683 612.871Z" stroke="#360687" stroke-miterlimit="10"/>
<path style="mix-blend-mode:overlay" d="M337.786 486.547C357.428 370.557 284.882 259.605 175.751 238.729C66.62 217.853 -37.7708 294.958 -57.4124 410.948C-77.0539 526.938 -4.50839 637.889 104.623 658.765C213.754 679.641 318.145 602.536 337.786 486.547Z" stroke="#360687" stroke-miterlimit="10"/>
<path style="mix-blend-mode:overlay" d="M319.419 488.365C339.948 383.172 276.357 280.208 177.384 258.389C78.411 236.57 -18.4645 304.157 -38.9937 409.35C-59.5229 514.543 4.06825 617.507 103.041 639.327C202.014 661.146 298.889 593.559 319.419 488.365Z" stroke="url(#paint4_linear_151_1117)" stroke-miterlimit="10"/>
<path style="mix-blend-mode:overlay" d="M279.146 501.926C306.607 420.403 266.689 330.656 189.988 301.469C113.286 272.283 28.8451 314.709 1.3843 396.232C-26.0765 477.754 13.8413 567.502 90.5431 596.688C167.245 625.875 251.686 583.448 279.146 501.926Z" stroke="url(#paint5_linear_151_1117)" stroke-miterlimit="10"/>
<path style="mix-blend-mode:overlay" d="M232.046 546.71C282.72 492.851 282.72 405.527 232.046 351.668C181.371 297.809 99.2117 297.809 48.5373 351.668C-2.13708 405.527 -2.13707 492.851 48.5373 546.71C99.2117 600.569 181.371 600.569 232.046 546.71Z" stroke="url(#paint6_linear_151_1117)" stroke-miterlimit="10"/>
<path style="mix-blend-mode:overlay" d="M190.629 555.659C245.896 526.127 268.174 454.567 240.388 395.826C212.601 337.085 145.273 313.407 90.0052 342.94C34.7377 372.472 12.4599 444.032 40.2463 502.773C68.0328 561.514 135.361 585.192 190.629 555.659Z" stroke="url(#paint7_linear_151_1117)" stroke-miterlimit="10"/>
<path style="mix-blend-mode:overlay" d="M158.434 547.724C209.521 537.104 242.835 484.479 232.843 430.182C222.852 375.885 173.339 340.477 122.252 351.096C71.1657 361.716 37.8516 414.341 47.8431 468.638C57.8345 522.935 107.348 558.343 158.434 547.724Z" stroke="#360687" stroke-miterlimit="10"/>
<path style="mix-blend-mode:overlay" d="M147.469 530.476C189.536 526.309 220.459 486.686 216.539 441.975C212.618 397.264 175.338 364.397 133.271 368.564C91.2036 372.731 60.28 412.355 64.2007 457.066C68.1215 501.776 105.402 534.643 147.469 530.476Z" stroke="url(#paint8_linear_151_1117)" stroke-miterlimit="10"/>
</g>
<defs>
<linearGradient id="paint0_linear_151_1117" x1="209.143" y1="22.7338" x2="649.086" y2="22.7338" gradientUnits="userSpaceOnUse">
<stop offset="0.09838" stop-color="#360687"/>
<stop offset="0.17413" stop-color="#7655AD"/>
<stop offset="0.32758" stop-color="white"/>
<stop offset="0.42861" stop-color="#BCA4F6"/>
<stop offset="0.52069" stop-color="#8458EE"/>
<stop offset="0.58587" stop-color="#6128EA"/>
<stop offset="0.61827" stop-color="#5416E8"/>
<stop offset="0.69312" stop-color="#541FE6"/>
<stop offset="0.81567" stop-color="#5438E2"/>
<stop offset="0.96991" stop-color="#545FDB"/>
<stop offset="1" stop-color="#5468DA"/>
</linearGradient>
<linearGradient id="paint1_linear_151_1117" x1="262.714" y1="22.6506" x2="596.136" y2="22.6506" gradientUnits="userSpaceOnUse">
<stop offset="0.09838" stop-color="#360687"/>
<stop offset="0.17413" stop-color="#7655AD"/>
<stop offset="0.32758" stop-color="white"/>
<stop offset="0.42861" stop-color="#BCA4F6"/>
<stop offset="0.52069" stop-color="#8458EE"/>
<stop offset="0.58587" stop-color="#6128EA"/>
<stop offset="0.61827" stop-color="#5416E8"/>
<stop offset="0.69312" stop-color="#541FE6"/>
<stop offset="0.81567" stop-color="#5438E2"/>
<stop offset="0.96991" stop-color="#545FDB"/>
<stop offset="1" stop-color="#5468DA"/>
</linearGradient>
<linearGradient id="paint2_linear_151_1117" x1="280.573" y1="22.6229" x2="578.487" y2="22.6229" gradientUnits="userSpaceOnUse">
<stop offset="0.09838" stop-color="#360687"/>
<stop offset="0.17413" stop-color="#7655AD"/>
<stop offset="0.32758" stop-color="white"/>
<stop offset="0.42861" stop-color="#BCA4F6"/>
<stop offset="0.52069" stop-color="#8458EE"/>
<stop offset="0.58587" stop-color="#6128EA"/>
<stop offset="0.61827" stop-color="#5416E8"/>
<stop offset="0.69312" stop-color="#541FE6"/>
<stop offset="0.81567" stop-color="#5438E2"/>
<stop offset="0.96991" stop-color="#545FDB"/>
<stop offset="1" stop-color="#5468DA"/>
</linearGradient>
<linearGradient id="paint3_linear_151_1117" x1="352.001" y1="22.5119" x2="507.887" y2="22.5119" gradientUnits="userSpaceOnUse">
<stop offset="0.09838" stop-color="#360687"/>
<stop offset="0.17413" stop-color="#7655AD"/>
<stop offset="0.32758" stop-color="white"/>
<stop offset="0.42861" stop-color="#BCA4F6"/>
<stop offset="0.52069" stop-color="#8458EE"/>
<stop offset="0.58587" stop-color="#6128EA"/>
<stop offset="0.61827" stop-color="#5416E8"/>
<stop offset="0.69312" stop-color="#541FE6"/>
<stop offset="0.81567" stop-color="#5438E2"/>
<stop offset="0.96991" stop-color="#545FDB"/>
<stop offset="1" stop-color="#5468DA"/>
</linearGradient>
<linearGradient id="paint4_linear_151_1117" x1="140.212" y1="252.8" x2="140.212" y2="644.916" gradientUnits="userSpaceOnUse">
<stop offset="0.09838" stop-color="#360687"/>
<stop offset="0.17413" stop-color="#7655AD"/>
<stop offset="0.32758" stop-color="white"/>
<stop offset="0.42861" stop-color="#BCA4F6"/>
<stop offset="0.52069" stop-color="#8458EE"/>
<stop offset="0.58587" stop-color="#6128EA"/>
<stop offset="0.61827" stop-color="#5416E8"/>
<stop offset="0.69312" stop-color="#541FE6"/>
<stop offset="0.81567" stop-color="#5438E2"/>
<stop offset="0.96991" stop-color="#545FDB"/>
<stop offset="1" stop-color="#5468DA"/>
</linearGradient>
<linearGradient id="paint5_linear_151_1117" x1="140.265" y1="290.76" x2="140.265" y2="607.398" gradientUnits="userSpaceOnUse">
<stop offset="0.09838" stop-color="#360687"/>
<stop offset="0.17413" stop-color="#7655AD"/>
<stop offset="0.32758" stop-color="white"/>
<stop offset="0.42861" stop-color="#BCA4F6"/>
<stop offset="0.52069" stop-color="#8458EE"/>
<stop offset="0.58587" stop-color="#6128EA"/>
<stop offset="0.61827" stop-color="#5416E8"/>
<stop offset="0.69312" stop-color="#541FE6"/>
<stop offset="0.81567" stop-color="#5438E2"/>
<stop offset="0.96991" stop-color="#545FDB"/>
<stop offset="1" stop-color="#5468DA"/>
</linearGradient>
<linearGradient id="paint6_linear_151_1117" x1="140.291" y1="309.739" x2="140.291" y2="588.639" gradientUnits="userSpaceOnUse">
<stop offset="0.09838" stop-color="#360687"/>
<stop offset="0.17413" stop-color="#7655AD"/>
<stop offset="0.32758" stop-color="white"/>
<stop offset="0.42861" stop-color="#BCA4F6"/>
<stop offset="0.52069" stop-color="#8458EE"/>
<stop offset="0.58587" stop-color="#6128EA"/>
<stop offset="0.61827" stop-color="#5416E8"/>
<stop offset="0.69312" stop-color="#541FE6"/>
<stop offset="0.81567" stop-color="#5438E2"/>
<stop offset="0.96991" stop-color="#545FDB"/>
<stop offset="1" stop-color="#5468DA"/>
</linearGradient>
<linearGradient id="paint7_linear_151_1117" x1="140.317" y1="328.719" x2="140.317" y2="569.88" gradientUnits="userSpaceOnUse">
<stop offset="0.09838" stop-color="#360687"/>
<stop offset="0.17413" stop-color="#7655AD"/>
<stop offset="0.32758" stop-color="white"/>
<stop offset="0.42861" stop-color="#BCA4F6"/>
<stop offset="0.52069" stop-color="#8458EE"/>
<stop offset="0.58587" stop-color="#6128EA"/>
<stop offset="0.61827" stop-color="#5416E8"/>
<stop offset="0.69312" stop-color="#541FE6"/>
<stop offset="0.81567" stop-color="#5438E2"/>
<stop offset="0.96991" stop-color="#545FDB"/>
<stop offset="1" stop-color="#5468DA"/>
</linearGradient>
<linearGradient id="paint8_linear_151_1117" x1="140.37" y1="366.679" x2="140.37" y2="532.362" gradientUnits="userSpaceOnUse">
<stop offset="0.09838" stop-color="#360687"/>
<stop offset="0.17413" stop-color="#7655AD"/>
<stop offset="0.32758" stop-color="white"/>
<stop offset="0.42861" stop-color="#BCA4F6"/>
<stop offset="0.52069" stop-color="#8458EE"/>
<stop offset="0.58587" stop-color="#6128EA"/>
<stop offset="0.61827" stop-color="#5416E8"/>
<stop offset="0.69312" stop-color="#541FE6"/>
<stop offset="0.81567" stop-color="#5438E2"/>
<stop offset="0.96991" stop-color="#545FDB"/>
<stop offset="1" stop-color="#5468DA"/>
</linearGradient>
<clipPath id="clip0_151_1117">
<rect width="740" height="501" fill="white" transform="translate(-2)"/>
</clipPath>
</defs>
</svg>
