<svg width="874" height="600" viewBox="0 0 874 600" fill="none" xmlns="http://www.w3.org/2000/svg">
<g clip-path="url(#clip0_151_940)">
<path style="mix-blend-mode:overlay" d="M182.315 223.914C81.5207 115.286 81.5208 -60.8339 182.315 -169.461C283.109 -278.089 446.528 -278.089 547.322 -169.462C648.116 -60.834 648.116 115.286 547.322 223.914C446.528 332.541 283.109 332.541 182.315 223.914Z" stroke="url(#paint0_linear_151_940)" stroke-miterlimit="10"/>
<path style="mix-blend-mode:overlay" d="M197.02 207.901C104.415 108.099 104.415 -53.7129 197.02 -153.515C289.625 -253.318 439.768 -253.318 532.373 -153.515C624.978 -53.7129 624.978 108.099 532.373 207.901C439.768 307.703 289.625 307.703 197.02 207.901Z" stroke="#015291" stroke-miterlimit="10"/>
<path style="mix-blend-mode:overlay" d="M211.724 191.889C127.307 100.911 127.307 -46.592 211.724 -137.569C296.141 -228.547 433.007 -228.547 517.424 -137.569C601.84 -46.592 601.84 100.911 517.424 191.889C433.007 282.866 296.141 282.866 211.724 191.889Z" stroke="#360687" stroke-miterlimit="10"/>
<path style="mix-blend-mode:overlay" d="M226.428 175.876C150.2 93.724 150.2 -39.471 226.428 -121.623C302.656 -203.775 426.246 -203.775 502.474 -121.623C578.702 -39.471 578.702 93.724 502.474 175.876C426.246 258.028 302.656 258.028 226.428 175.876Z" stroke="url(#paint1_linear_151_940)" stroke-miterlimit="10"/>
<path style="mix-blend-mode:overlay" d="M330.998 211.391C236.553 191.553 174.913 92.9584 193.32 -8.8266C211.728 -110.612 303.212 -177.043 397.657 -157.205C492.102 -137.367 553.743 -38.7719 535.335 63.0131C516.928 164.798 425.443 231.229 330.998 211.391Z" stroke="url(#paint2_linear_151_940)" stroke-miterlimit="10"/>
<path style="mix-blend-mode:overlay" d="M356.231 192.004C271.704 187.257 206.752 109.561 211.157 18.4646C215.562 -72.6315 287.655 -142.631 372.182 -137.884C456.709 -133.136 521.661 -55.4402 517.256 35.6558C512.851 126.752 440.757 196.751 356.231 192.004Z" stroke="#360687" stroke-miterlimit="10"/>
<path style="mix-blend-mode:overlay" d="M231.915 33.086C228.81 -45.582 285.467 -112.068 358.462 -115.414C431.457 -118.76 493.148 -57.7 496.253 20.9679C499.358 99.6359 442.701 166.122 369.706 169.468C296.711 172.814 235.02 111.754 231.915 33.086Z" stroke="#015291" stroke-miterlimit="10"/>
<path style="mix-blend-mode:overlay" d="M253.269 39.7225C246.746 -26.1621 291.017 -85.271 352.15 -92.301C413.284 -99.331 468.13 -51.6199 474.653 14.2647C481.176 80.1493 436.905 139.258 375.772 146.288C314.639 153.318 259.792 105.607 253.269 39.7225Z" stroke="#360687" stroke-miterlimit="10"/>
<path style="mix-blend-mode:overlay" d="M274.513 41.5973C267.013 -11.5697 300.924 -61.2232 350.257 -69.3068C399.59 -77.3905 445.663 -40.8433 453.164 12.3237C460.665 65.4907 426.753 115.144 377.42 123.228C328.087 131.312 282.014 94.7643 274.513 41.5973Z" stroke="url(#paint3_linear_151_940)" stroke-miterlimit="10"/>
<path style="mix-blend-mode:overlay" d="M523.593 733.977C422.799 625.35 422.799 449.23 523.593 340.602C624.387 231.975 787.806 231.975 888.6 340.602C989.394 449.23 989.394 625.35 888.6 733.977C787.806 842.605 624.387 842.605 523.593 733.977Z" stroke="#360687" stroke-miterlimit="10"/>
<path style="mix-blend-mode:overlay" d="M472.686 582.691C449.487 443.781 535.17 310.905 664.062 285.903C792.955 260.902 916.249 353.243 939.447 492.153C962.645 631.063 876.963 763.939 748.071 788.941C619.178 813.942 495.884 721.6 472.686 582.691Z" stroke="#360687" stroke-miterlimit="10"/>
<path style="mix-blend-mode:overlay" d="M494.378 584.869C470.132 458.889 545.238 335.579 662.133 309.448C779.028 283.317 893.446 364.26 917.692 490.24C941.939 616.22 866.833 739.53 749.938 765.661C633.043 791.792 518.625 710.849 494.378 584.869Z" stroke="url(#paint4_linear_151_940)" stroke-miterlimit="10"/>
<path style="mix-blend-mode:overlay" d="M516.879 589.736C490.206 477.168 553.257 362.61 657.708 333.864C762.158 305.117 868.455 373.068 895.128 485.637C921.802 598.205 858.751 712.763 754.3 741.509C649.85 770.256 543.553 702.305 516.879 589.736Z" stroke="url(#paint5_linear_151_940)" stroke-miterlimit="10"/>
<path style="mix-blend-mode:overlay" d="M541.944 601.109C509.511 503.477 556.657 395.995 647.248 361.041C737.839 326.087 837.57 376.897 870.004 474.529C902.437 572.161 855.291 679.643 764.7 714.597C674.109 749.551 574.378 698.741 541.944 601.109Z" stroke="url(#paint6_linear_151_940)" stroke-miterlimit="10"/>
<path style="mix-blend-mode:overlay" d="M597.573 654.742C537.722 590.24 537.722 485.662 597.573 421.16C657.423 356.658 754.46 356.658 814.311 421.16C874.161 485.662 874.161 590.24 814.311 654.742C754.46 719.244 657.423 719.244 597.573 654.742Z" stroke="url(#paint7_linear_151_940)" stroke-miterlimit="10"/>
<path style="mix-blend-mode:overlay" d="M646.489 665.46C581.214 630.092 554.902 544.391 587.72 474.043C620.538 403.694 700.058 375.338 765.334 410.706C830.609 446.075 856.921 531.775 824.103 602.124C791.285 672.472 711.765 700.829 646.489 665.46Z" stroke="url(#paint8_linear_151_940)" stroke-miterlimit="10"/>
<path style="mix-blend-mode:overlay" d="M684.514 655.956C624.176 643.239 584.83 580.214 596.631 515.188C608.431 450.161 666.911 407.757 727.248 420.475C787.585 433.192 826.932 496.217 815.131 561.243C803.33 626.27 744.851 668.674 684.514 655.956Z" stroke="#360687" stroke-miterlimit="10"/>
<path style="mix-blend-mode:overlay" d="M697.465 635.301C647.781 630.31 611.257 582.857 615.888 529.311C620.519 475.765 664.55 436.404 714.235 441.394C763.919 446.385 800.442 493.838 795.812 547.384C791.181 600.93 747.15 640.292 697.465 635.301Z" stroke="url(#paint9_linear_151_940)" stroke-miterlimit="10"/>
</g>
<defs>
<linearGradient id="paint0_linear_151_940" x1="624.623" y1="27.2261" x2="105.014" y2="27.2261" gradientUnits="userSpaceOnUse">
<stop offset="0.09838" stop-color="#360687"/>
<stop offset="0.17413" stop-color="#7655AD"/>
<stop offset="0.32758" stop-color="white"/>
<stop offset="0.42861" stop-color="#BCA4F6"/>
<stop offset="0.52069" stop-color="#8458EE"/>
<stop offset="0.58587" stop-color="#6128EA"/>
<stop offset="0.61827" stop-color="#5416E8"/>
<stop offset="0.69312" stop-color="#541FE6"/>
<stop offset="0.81567" stop-color="#5438E2"/>
<stop offset="0.96991" stop-color="#545FDB"/>
<stop offset="1" stop-color="#5468DA"/>
</linearGradient>
<linearGradient id="paint1_linear_151_940" x1="561.35" y1="27.1265" x2="167.552" y2="27.1265" gradientUnits="userSpaceOnUse">
<stop offset="0.09838" stop-color="#360687"/>
<stop offset="0.17413" stop-color="#7655AD"/>
<stop offset="0.32758" stop-color="white"/>
<stop offset="0.42861" stop-color="#BCA4F6"/>
<stop offset="0.52069" stop-color="#8458EE"/>
<stop offset="0.58587" stop-color="#6128EA"/>
<stop offset="0.61827" stop-color="#5416E8"/>
<stop offset="0.69312" stop-color="#541FE6"/>
<stop offset="0.81567" stop-color="#5438E2"/>
<stop offset="0.96991" stop-color="#545FDB"/>
<stop offset="1" stop-color="#5468DA"/>
</linearGradient>
<linearGradient id="paint2_linear_151_940" x1="540.259" y1="27.0933" x2="188.397" y2="27.0933" gradientUnits="userSpaceOnUse">
<stop offset="0.09838" stop-color="#360687"/>
<stop offset="0.17413" stop-color="#7655AD"/>
<stop offset="0.32758" stop-color="white"/>
<stop offset="0.42861" stop-color="#BCA4F6"/>
<stop offset="0.52069" stop-color="#8458EE"/>
<stop offset="0.58587" stop-color="#6128EA"/>
<stop offset="0.61827" stop-color="#5416E8"/>
<stop offset="0.69312" stop-color="#541FE6"/>
<stop offset="0.81567" stop-color="#5438E2"/>
<stop offset="0.96991" stop-color="#545FDB"/>
<stop offset="1" stop-color="#5468DA"/>
</linearGradient>
<linearGradient id="paint3_linear_151_940" x1="455.896" y1="26.9605" x2="271.782" y2="26.9605" gradientUnits="userSpaceOnUse">
<stop offset="0.09838" stop-color="#360687"/>
<stop offset="0.17413" stop-color="#7655AD"/>
<stop offset="0.32758" stop-color="white"/>
<stop offset="0.42861" stop-color="#BCA4F6"/>
<stop offset="0.52069" stop-color="#8458EE"/>
<stop offset="0.58587" stop-color="#6128EA"/>
<stop offset="0.61827" stop-color="#5416E8"/>
<stop offset="0.69312" stop-color="#541FE6"/>
<stop offset="0.81567" stop-color="#5438E2"/>
<stop offset="0.96991" stop-color="#545FDB"/>
<stop offset="1" stop-color="#5468DA"/>
</linearGradient>
<linearGradient id="paint4_linear_151_940" x1="706.035" y1="302.755" x2="706.035" y2="772.354" gradientUnits="userSpaceOnUse">
<stop offset="0.09838" stop-color="#360687"/>
<stop offset="0.17413" stop-color="#7655AD"/>
<stop offset="0.32758" stop-color="white"/>
<stop offset="0.42861" stop-color="#BCA4F6"/>
<stop offset="0.52069" stop-color="#8458EE"/>
<stop offset="0.58587" stop-color="#6128EA"/>
<stop offset="0.61827" stop-color="#5416E8"/>
<stop offset="0.69312" stop-color="#541FE6"/>
<stop offset="0.81567" stop-color="#5438E2"/>
<stop offset="0.96991" stop-color="#545FDB"/>
<stop offset="1" stop-color="#5468DA"/>
</linearGradient>
<linearGradient id="paint5_linear_151_940" x1="706.004" y1="325.485" x2="706.004" y2="749.888" gradientUnits="userSpaceOnUse">
<stop offset="0.09838" stop-color="#360687"/>
<stop offset="0.17413" stop-color="#7655AD"/>
<stop offset="0.32758" stop-color="white"/>
<stop offset="0.42861" stop-color="#BCA4F6"/>
<stop offset="0.52069" stop-color="#8458EE"/>
<stop offset="0.58587" stop-color="#6128EA"/>
<stop offset="0.61827" stop-color="#5416E8"/>
<stop offset="0.69312" stop-color="#541FE6"/>
<stop offset="0.81567" stop-color="#5438E2"/>
<stop offset="0.96991" stop-color="#545FDB"/>
<stop offset="1" stop-color="#5468DA"/>
</linearGradient>
<linearGradient id="paint6_linear_151_940" x1="705.974" y1="348.215" x2="705.974" y2="727.422" gradientUnits="userSpaceOnUse">
<stop offset="0.09838" stop-color="#360687"/>
<stop offset="0.17413" stop-color="#7655AD"/>
<stop offset="0.32758" stop-color="white"/>
<stop offset="0.42861" stop-color="#BCA4F6"/>
<stop offset="0.52069" stop-color="#8458EE"/>
<stop offset="0.58587" stop-color="#6128EA"/>
<stop offset="0.61827" stop-color="#5416E8"/>
<stop offset="0.69312" stop-color="#541FE6"/>
<stop offset="0.81567" stop-color="#5438E2"/>
<stop offset="0.96991" stop-color="#545FDB"/>
<stop offset="1" stop-color="#5468DA"/>
</linearGradient>
<linearGradient id="paint7_linear_151_940" x1="705.942" y1="370.945" x2="705.942" y2="704.956" gradientUnits="userSpaceOnUse">
<stop offset="0.09838" stop-color="#360687"/>
<stop offset="0.17413" stop-color="#7655AD"/>
<stop offset="0.32758" stop-color="white"/>
<stop offset="0.42861" stop-color="#BCA4F6"/>
<stop offset="0.52069" stop-color="#8458EE"/>
<stop offset="0.58587" stop-color="#6128EA"/>
<stop offset="0.61827" stop-color="#5416E8"/>
<stop offset="0.69312" stop-color="#541FE6"/>
<stop offset="0.81567" stop-color="#5438E2"/>
<stop offset="0.96991" stop-color="#545FDB"/>
<stop offset="1" stop-color="#5468DA"/>
</linearGradient>
<linearGradient id="paint8_linear_151_940" x1="705.911" y1="393.676" x2="705.911" y2="682.491" gradientUnits="userSpaceOnUse">
<stop offset="0.09838" stop-color="#360687"/>
<stop offset="0.17413" stop-color="#7655AD"/>
<stop offset="0.32758" stop-color="white"/>
<stop offset="0.42861" stop-color="#BCA4F6"/>
<stop offset="0.52069" stop-color="#8458EE"/>
<stop offset="0.58587" stop-color="#6128EA"/>
<stop offset="0.61827" stop-color="#5416E8"/>
<stop offset="0.69312" stop-color="#541FE6"/>
<stop offset="0.81567" stop-color="#5438E2"/>
<stop offset="0.96991" stop-color="#545FDB"/>
<stop offset="1" stop-color="#5468DA"/>
</linearGradient>
<linearGradient id="paint9_linear_151_940" x1="705.85" y1="439.136" x2="705.85" y2="637.559" gradientUnits="userSpaceOnUse">
<stop offset="0.09838" stop-color="#360687"/>
<stop offset="0.17413" stop-color="#7655AD"/>
<stop offset="0.32758" stop-color="white"/>
<stop offset="0.42861" stop-color="#BCA4F6"/>
<stop offset="0.52069" stop-color="#8458EE"/>
<stop offset="0.58587" stop-color="#6128EA"/>
<stop offset="0.61827" stop-color="#5416E8"/>
<stop offset="0.69312" stop-color="#541FE6"/>
<stop offset="0.81567" stop-color="#5438E2"/>
<stop offset="0.96991" stop-color="#545FDB"/>
<stop offset="1" stop-color="#5468DA"/>
</linearGradient>
<clipPath id="clip0_151_940">
<rect width="874" height="600" fill="white" transform="matrix(-1 0 0 1 874 0)"/>
</clipPath>
</defs>
</svg>
