<svg width="168" height="98" viewBox="0 0 168 98" fill="none" xmlns="http://www.w3.org/2000/svg">
<g clip-path="url(#clip0_151_955)">
<path d="M102.68 7.46189H84.9742V79.7346H76.8398V0H102.68V7.46189Z" fill="white"/>
<path d="M130.26 79.7821H122.111L122.098 76.0351H98.2916V79.7821H90.1572V69.5049H93.1398C94.7486 68.1681 95.9914 66.2036 96.8681 63.6114C97.7448 61.0197 98.3368 57.8088 98.6441 53.9788L99.3443 14.4302H125.65V69.5049H130.26V79.7821ZM102.467 69.5049H117.516V21.0146H107.072L106.833 53.5452C106.29 60.4999 104.835 65.8198 102.467 69.5049Z" fill="white"/>
<path d="M147.199 59.9128H142.508V79.7346H134.374V25.9705H142.508V52.3801H146.223L155.876 36.583H165.8L153.625 55.2523L168 79.7346H158.293L147.199 59.9128Z" fill="white"/>
<path d="M70.3779 0.0239258L2.2248 30.9541L0 31.9579V79.782H20.0513V51.0212H23.0711V79.782H40.0361V51.0212H43.0464V79.782H70.3779V4.43732L70.3683 1.59672L70.3779 0.0239258ZM64.6974 74.1002H48.7269V45.3393H34.3562V74.1002H28.7517V45.3393H14.3714V74.1002H5.68054V36.6359H64.6974V74.1002ZM64.6974 30.9541H51.5288C52.9482 28.6163 54.8631 26.6184 57.1384 25.1016C59.4137 23.5847 61.9941 22.5858 64.6974 22.1753V30.9541ZM64.6974 16.4455C60.4517 16.9354 56.4094 18.5339 52.9764 21.0805C49.5435 23.6271 46.8405 27.0322 45.1389 30.9541H15.9711L64.6974 8.84111V16.4455Z" fill="white"/>
<path d="M5.11509 93.4927C4.72074 93.1704 4.18707 93.0091 3.51408 93.0087H1.83064V91.6188H5.28318V90.6604H0.777344V96.7047H3.46167C4.16407 96.7047 4.71372 96.5436 5.11061 96.2214C5.50751 95.8985 5.70606 95.438 5.70628 94.8398C5.70628 94.2637 5.50922 93.8147 5.11509 93.4927ZM4.29957 95.5431C4.06884 95.6844 3.71199 95.7549 3.22903 95.7547H1.83064V93.907H3.41885C4.23566 93.907 4.64427 94.2034 4.64469 94.7963C4.64469 95.1537 4.52965 95.4026 4.29957 95.5431Z" fill="white"/>
<path d="M33.8624 95.7547V94.1314H36.8925V93.1813H33.8624V91.6098H37.2811V90.6604H32.8008V96.7047H37.3239V95.7547L33.8624 95.7547Z" fill="white"/>
<path d="M68.5376 91.2128C68.1229 90.8445 67.5645 90.6604 66.8625 90.6604H64.4805V96.7047H65.5421V94.7618H66.7417C67.4383 94.7618 68.0153 94.5804 68.4725 94.2177C68.9301 93.8552 69.1589 93.3486 69.1589 92.698C69.1589 92.0765 68.9518 91.5815 68.5376 91.2128ZM67.7259 93.501C67.4901 93.7024 67.1735 93.8032 66.7762 93.8034H65.5421V91.6271H66.7762C67.1789 91.6271 67.4969 91.7206 67.7304 91.9077C67.9631 92.0951 68.0796 92.3615 68.08 92.7069C68.085 92.8575 68.0558 93.0072 67.9944 93.1448C67.9331 93.2823 67.8413 93.4041 67.7259 93.501Z" fill="white"/>
<path d="M101.019 95.7547V90.6604H96.8061V91.5152C96.8061 93.3284 96.5501 94.7415 96.0379 95.7547H95.4512V98.0001H96.383L96.4866 96.7048H100.742V98.0001H101.623L101.77 95.7547H101.019ZM99.957 95.7547H97.1685C97.6063 94.8685 97.8251 93.7201 97.8249 92.3093V91.6188H99.957V95.7547Z" fill="white"/>
<path d="M133.189 95.0467C132.947 95.2831 132.67 95.4824 132.369 95.6381C132.083 95.7721 131.77 95.8386 131.454 95.8325C131.186 95.838 130.919 95.7849 130.673 95.6768C130.427 95.5687 130.208 95.4082 130.03 95.2066C129.65 94.7891 129.46 94.281 129.46 93.6824C129.46 93.0776 129.649 92.568 130.026 92.1537C130.204 91.9523 130.424 91.7924 130.671 91.6851C130.918 91.5777 131.185 91.5256 131.454 91.5323C132.041 91.5323 132.605 91.7827 133.146 92.2835L133.828 91.4978C133.527 91.2069 133.178 90.9703 132.796 90.7983C132.431 90.6372 131.986 90.5566 131.462 90.5566C130.559 90.5566 129.814 90.8588 129.227 91.4632C128.64 92.0674 128.347 92.8071 128.347 93.6824C128.347 94.5634 128.64 95.3046 129.227 95.906C129.814 96.5077 130.545 96.8084 131.42 96.8081C131.955 96.8081 132.412 96.7189 132.792 96.5403C133.199 96.3423 133.565 96.07 133.871 95.7372L133.189 95.0467Z" fill="white"/>
<path d="M163.608 93.2593L166.119 90.6604H164.816L161.941 93.6998V90.6604H160.88V96.7047H161.941V94.9517L162.882 93.9843L164.945 96.7047H166.231L163.608 93.2593Z" fill="white"/>
</g>
<defs>
<clipPath id="clip0_151_955">
<rect width="168" height="98" fill="white"/>
</clipPath>
</defs>
</svg>
