<svg width="167" height="97" viewBox="0 0 167 97" fill="none" xmlns="http://www.w3.org/2000/svg">
<g clip-path="url(#clip0_167_788)">
<path d="M102.069 7.38575H84.4688V78.921H76.3828V0H102.069V7.38575Z" fill="#465E85"/>
<path d="M129.485 78.968H121.385L121.372 75.2592H97.7071V78.968H89.6211V68.7957H92.5859C94.1852 67.4726 95.4205 65.5281 96.292 62.9624C97.1635 60.3971 97.752 57.2189 98.0574 53.428L98.7535 14.283H124.903V68.7957H129.485V78.968ZM101.858 68.7957H116.817V20.8001H106.435L106.197 52.9989C105.658 59.8826 104.212 65.1482 101.858 68.7957Z" fill="#465E85"/>
<path d="M146.323 59.3015H141.66V78.921H133.574V25.7055H141.66V51.8456H145.353L154.948 36.2097H164.813L152.711 54.6885L167 78.921H157.351L146.323 59.3015Z" fill="#465E85"/>
<path d="M69.959 0.0235596L2.21156 30.6381L0 31.6316V78.9678H19.9319V50.5004H22.9338V78.9678H39.7978V50.5004H42.7901V78.9678H69.959V4.39192L69.9495 1.5803L69.959 0.0235596ZM64.3123 73.344H48.4369V44.8766H34.1517V73.344H28.5805V44.8766H14.2858V73.344H5.64673V36.262H64.3123V73.344ZM64.3123 30.6381H51.2221C52.633 28.3241 54.5365 26.3467 56.7983 24.8453C59.0601 23.344 61.6251 22.3552 64.3123 21.9489V30.6381ZM64.3123 16.2775C60.0918 16.7625 56.0737 18.3446 52.6611 20.8653C49.2486 23.3859 46.5617 26.7563 44.8702 30.6381H15.876L64.3123 8.75077V16.2775Z" fill="#465E85"/>
<path d="M5.08439 92.5386C4.69239 92.2197 4.16189 92.06 3.49291 92.0596H1.81948V90.6838H5.25147V89.7352H0.772461V95.7179H3.44081C4.13903 95.7179 4.6854 95.5584 5.07994 95.2395C5.47447 94.9199 5.67184 94.4641 5.67206 93.872C5.67206 93.3018 5.47617 92.8573 5.08439 92.5386ZM4.27372 94.5681C4.04436 94.7079 3.68964 94.7777 3.20956 94.7775H1.81948V92.9487H3.39825C4.21019 92.9487 4.61637 93.2421 4.61679 93.8289C4.61679 94.1827 4.50243 94.429 4.27372 94.5681Z" fill="#465E85"/>
<path d="M33.6607 94.7775V93.1708H36.6728V92.2304H33.6607V90.675H37.0591V89.7352H32.6055V95.7179H37.1016V94.7775L33.6607 94.7775Z" fill="#465E85"/>
<path d="M68.1307 90.282C67.7184 89.9175 67.1633 89.7352 66.4655 89.7352H64.0977V95.7179H65.1529V93.7948H66.3454C67.0379 93.7948 67.6114 93.6152 68.0659 93.2562C68.5208 92.8974 68.7482 92.396 68.7482 91.752C68.7482 91.1369 68.5424 90.6469 68.1307 90.282ZM67.3238 92.5468C67.0894 92.7462 66.7747 92.8459 66.3797 92.8462H65.1529V90.692H66.3797C66.78 90.692 67.0962 90.7846 67.3283 90.9698C67.5595 91.1553 67.6754 91.4189 67.6758 91.7609C67.6808 91.9099 67.6517 92.0581 67.5907 92.1942C67.5297 92.3304 67.4385 92.451 67.3238 92.5468Z" fill="#465E85"/>
<path d="M100.417 94.7775V89.7352H96.2297V90.5813C96.2297 92.376 95.9752 93.7747 95.466 94.7775H94.8828V97H95.8091L95.912 95.7179H100.143V97H101.018L101.164 94.7775H100.417ZM99.3618 94.7775H96.5899C97.0251 93.9004 97.2426 92.7637 97.2424 91.3673V90.6838H99.3618V94.7775Z" fill="#465E85"/>
<path d="M132.396 94.077C132.155 94.311 131.88 94.5082 131.581 94.6624C131.296 94.795 130.985 94.8608 130.671 94.8547C130.404 94.8602 130.139 94.8076 129.895 94.7006C129.65 94.5936 129.432 94.4348 129.255 94.2352C128.877 93.822 128.689 93.3191 128.689 92.7266C128.689 92.1279 128.876 91.6236 129.251 91.2135C129.428 91.0142 129.647 90.8559 129.893 90.7496C130.138 90.6434 130.404 90.5918 130.671 90.5984C131.254 90.5984 131.815 90.8463 132.353 91.342L133.031 90.5642C132.731 90.2764 132.384 90.0422 132.005 89.8719C131.642 89.7125 131.2 89.6327 130.679 89.6327C129.782 89.6327 129.041 89.9318 128.457 90.5301C127.874 91.1281 127.582 91.8602 127.582 92.7266C127.582 93.5986 127.874 94.3322 128.457 94.9275C129.041 95.523 129.767 95.8207 130.637 95.8204C131.168 95.8204 131.623 95.7321 132.001 95.5553C132.405 95.3594 132.769 95.0898 133.074 94.7605L132.396 94.077Z" fill="#465E85"/>
<path d="M162.633 92.3076L165.13 89.7352H163.834L160.977 92.7436V89.7352H159.922V95.7179H160.977V93.9827L161.912 93.0253L163.963 95.7179H165.241L162.633 92.3076Z" fill="#465E85"/>
</g>
<defs>
<clipPath id="clip0_167_788">
<rect width="167" height="97" fill="white"/>
</clipPath>
</defs>
</svg>
