<svg width="51" height="31" viewBox="0 0 51 31" fill="none" xmlns="http://www.w3.org/2000/svg">
<path d="M24.7016 11.1449H20.8702C19.2926 11.1449 18.316 11.4078 17.9404 11.9337C17.5648 12.3844 17.3769 13.2484 17.3769 14.5255V30.0762H0.361328V12.4971C0.361328 8.81604 1.48819 5.8862 3.74192 3.7076C5.99564 1.529 9.33866 0.439697 13.771 0.439697H24.7016V11.1449ZM50.2813 11.1449H46.45C44.8724 11.1449 43.8958 11.4078 43.5202 11.9337C43.1445 12.3844 42.9567 13.2484 42.9567 14.5255V30.0762H25.9411V12.4971C25.9411 8.81604 27.068 5.8862 29.3217 3.7076C31.5754 1.529 34.9184 0.439697 39.3508 0.439697H50.2813V11.1449Z" fill="#02558F"/>
</svg>
